<svg height="73" viewBox="0 0 73 73" width="73" xmlns="http://www.w3.org/2000/svg"><g fill="none" fill-rule="nonzero"><rect fill="#fff" height="71" rx="14" stroke="#810213" stroke-width="2" width="71" x="1" y="1"/><g transform="translate(11 11)"><path d="m26.9622656 19.5775254 9.1952403-19.12579688c.1330781-.2762168.4116855-.45172852.7182832-.45172852h12.8457246c.2739258 0 .5284277.14084766.6746543.37273828.1455293.23189063.1618652.52255078.0436289.7692832l-12.191291 25.35795702c-.0988125.2050957-.2802012.3583945-.4988438.4210488-.0716191.0206192-.1455293.0307793-.2194394.0307793-.1494141 0-.2972344-.0420351-.4264278-.1233164l-9.8496738-6.2321601c-.3416602-.2164512-.4668691-.6546328-.2918555-1.0188047z" fill="#ff4f19"/><path d="m43.826332 0h5.8951817c.2739258 0 .5284277.14084766.6746543.37273828.1455293.23189063.1618652.52255078.0436289.7692832l-12.191291 25.35795702c-.0988125.2050957-.2802012.3583945-.4988438.4210488-.0716191.0206192-.1455293.0307793-.2194394.0307793-.1494141 0-.2972344-.0420351-.4264278-.1233164l-4.7352304-2.9961504z" fill="#e3001e"/><path d="m23.6391973 19.5775254-9.1951407-19.12579688c-.1330781-.2762168-.4116855-.45172852-.7182832-.45172852h-12.84572457c-.27392578 0-.52842774.14084766-.6746543.37273828-.1455293.23189063-.16186523.52255078-.0436289.7692832l12.19129097 25.35795702c.0988125.2050957.2802012.3583945.4988438.4210488.0716191.0206192.1455293.0307793.2194394.0307793.1494141 0 .2972344-.0420351.4264278-.1233164l9.8496738-6.2321601c.3415606-.2164512.4668691-.6546328.2917559-1.0188047z" fill="#ff4f19"/><path d="m6.77523047 0h-5.89518164c-.27392578 0-.52842774.14084766-.6746543.37273828-.1455293.23189063-.16186523.52255078-.0436289.7692832l12.19129097 25.35795702c.0988125.2050957.2802012.3583945.4988438.4210488.0716191.0206192.1455293.0307793.2194394.0307793.1494141 0 .2972344-.0420351.4264278-.1233164l4.7352304-2.9961504z" fill="#e3001e"/><circle cx="25.311639" cy="35.0625" fill="#ffcd00" r="15.9375"/><path d="m25.3116387 51c4.401041 0 8.385416-1.7839043 11.2694062-4.6679941l-22.5389121-22.5390118c-2.8841894 2.8840899-4.66799413 6.8684649-4.66799413 11.2695059 0 8.8019824 7.13541793 15.9375 15.93750003 15.9375z" fill="#ff9100"/><path d="m29.4787969 42.9522598c-.2614746 0-.524543-.0630528-.767291-.1906524l-3.3999668-1.7870918-3.3999668 1.7870918c-.558709.2929512-1.2240996.2443418-1.7330039-.125707-.511295-.3712442-.7618125-.9883242-.6552305-1.6104844l.6490547-3.7851562-2.7509121-2.6804883c-.452127-.4412695-.6117012-1.0879336-.4163672-1.6882793s.7042383-1.0303594 1.3291875-1.1214024l3.8006953-.5521347 1.700332-3.4438946c.2786074-.5657812.8443887-.9175019 1.4754141-.9179003h.0007969c.6319218 0 1.1976035.3517207 1.4770078.9179003l1.6996347 3.4438946 3.7998985.5521347c.6256465.091043 1.1346504.5209571 1.3299844 1.1214024.1953339.6004453.0357597 1.2471094-.4163672 1.6878808l-2.7509121 2.6808868.6497519 3.7851562c.106582.6221602-.1439355 1.2392402-.6552305 1.6104844-.2886679.2097773-.6264433.3163594-.9665097.3163594zm-10.9445801-9.5341114 3.0505371 2.9731407c.1875645.1832812.2731289.4470468.2288027.7054336l-.7198769 4.1980371.4474453.7615136-.3704473-.7054336 3.7704141-1.9820273c.2318906-.1222207.5089043-.1222207.7407949 0l3.7704141 1.9820273.8630156-.1906523-.7852207.1346719-.7205742-4.1980371c-.0443262-.2583868.0412383-.5221524.2288027-.7054336l3.0505371-2.9731407.0848672-.8793515-.1143515.788707-4.2147715-.6123984c-.2598809-.037752-.484002-.2008125-.5999473-.4361895l-1.8848086-3.8194219c0 .0007969-.0475137.0003985-.0763008 0-.0116543 0-.0194238 0-.0194238 0l-1.8856055 3.8198204c-.1159453.2349785-.3400664.398039-.5999472.435791l-4.2146719.6123984-.586002.6615059z" fill="#fff"/><path d="m38.0639297 35.859375c-.2077852 0-.4147735-.0879551-.5665781-.2310938-.1510079-.1514062-.2303965-.3587929-.2303965-.5657812 0-.2073867.0793886-.414375.2303965-.5657813.2949433-.2949433.82875-.2949433 1.1236933 0 .1517051.1514063.2396602.3583946.2396602.5657813 0 .2069883-.0879551.414375-.2396602.5657812-.1431387.1431387-.3501269.2310938-.5571152.2310938z" fill="#fff"/><path d="m25.3139297 23.109375c-.2155547 0-.4147734-.0879551-.5664785-.2310937-.1510078-.1514063-.2303965-.358793-.2303965-.5657813 0-.2073867.0793887-.414375.2303965-.5657813.2949433-.2949433.82875-.2949433 1.1236933 0 .1517051.1514063.2396602.3583946.2396602.5657813 0 .2069883-.0879551.414375-.2396602.5657813-.1432382.1431386-.3502265.2310937-.5572148.2310937z" fill="#fff"/><path d="m16.2930059 26.8466191c-.2069883 0-.4147735-.087955-.5580118-.2392617-.151705-.1432383-.2388632-.350625-.2388632-.5576133 0-.2151562.0871582-.4225429.2388632-.5657812.2871739-.2949434.82875-.2949434 1.1236934 0 .1510078.1514062.2310937.350625.2310937.5657812 0 .2069883-.0801855.414375-.2310937.5576133-.1516055.1514063-.3508242.2392617-.5656816.2392617z" fill="#fff"/><path d="m34.3261875 44.8720313c-.2069883 0-.4147734-.0797872-.5657813-.2310938-.1432382-.1435371-.2310937-.3509238-.2310937-.5657813 0-.2073867.0879551-.414375.2310937-.5580117.3027129-.3027129.82875-.3027129 1.1314629 0 .1432383.1435371.2310938.350625.2310938.5580117 0 .2147579-.0879551.4139766-.2310938.5657813-.1516054.1514063-.3585937.2310938-.5656816.2310938z" fill="#fff"/><path d="m34.3261875 26.8466191c-.2069883 0-.4147734-.087955-.5657813-.2310937-.1432382-.1514063-.2310937-.358793-.2310937-.5657813 0-.2151562.0879551-.4225429.2310937-.5657812.2949434-.2949434.82875-.2949434 1.1314629 0 .1432383.1432383.2310938.350625.2310938.5657812 0 .2069883-.0879551.414375-.2310938.5657813-.1516054.1432383-.3585937.2310937-.5656816.2310937z" fill="#fff"/><path d="m37.0911445 30.9824004c-.2069883 0-.4139765-.0875567-.5657812-.2392617-.1432383-.1432383-.2310938-.350625-.2310938-.5576133 0-.2151563.0879551-.422543.2310938-.5657813.3027129-.2949433.82875-.2949433 1.1314629 0 .1439355.1432383.2310937.350625.2310937.5657813 0 .2069883-.0871582.414375-.2310937.5576133-.1509082.151705-.3586934.2392617-.5656817.2392617z" fill="#fff"/><path d="m20.4283887 24.0813633c-.2069883 0-.4139766-.0875567-.5572149-.2388633-.1517051-.1435371-.2396601-.350625-.2396601-.5580117 0-.2069883.087955-.414375.2396601-.5657813.2941465-.2949433.82875-.2949433 1.1228965 0 .1517051.1514063.2310938.350625.2310938.5657813 0 .2073867-.0793887.414375-.2310938.5657812-.1509082.1435371-.3501269.2310938-.5656816.2310938z" fill="#fff"/><path d="m37.0911445 40.7359512c-.2069883 0-.4139765-.0793887-.5657812-.2310938-.1432383-.1514062-.2310938-.350625-.2310938-.5657812 0-.2069883.0879551-.414375.2310938-.5576133.2949433-.3027129.8365195-.3027129 1.1314629 0 .1439355.1432383.2310937.350625.2310937.5576133 0 .2151562-.0871582.414375-.2310937.5657812-.1509082.1517051-.3586934.2310938-.5656817.2310938z" fill="#fff"/><path d="m30.1901074 24.0813633c-.2069883 0-.4139765-.0875567-.5657812-.2310938-.1432383-.1514062-.2310938-.3583945-.2310938-.5657812 0-.2151563.0879551-.4221445.2310938-.5657813.2949433-.2949433.82875-.2949433 1.1314629 0 .1439355.1514063.2310937.350625.2310937.5657813 0 .2073867-.0871582.414375-.2310937.5657812-.1509082.1435371-.3578965.2310938-.5656817.2310938z" fill="#fff"/><path d="m37.8086309 33.3173437c-.2155547 0-.422543-.087955-.5657813-.2310937-.1517051-.1517051-.2310937-.358793-.2310937-.5657813 0-.2073867.0793886-.414375.2310937-.5661796.2949434-.294545.82875-.294545 1.1236934 0 .1510078.151705.2388633.3587929.2388633.5661796 0 .2069883-.0879551.4139766-.2388633.5657813-.143836.1432383-.3509239.2310937-.5579121.2310937z" fill="#fff"/><path d="m22.7715 23.3642754c-.2155547 0-.4147734-.0875567-.5657813-.2310938-.151705-.1514062-.2310937-.350625-.2310937-.5657812 0-.2069883.0793887-.414375.2310937-.5657813.2949434-.2949433.82875-.2949433 1.1314629 0 .1432383.1514063.2310938.358793.2310938.5657813s-.0879551.414375-.2310938.5657812c-.1516054.1435371-.3585937.2310938-.5656816.2310938z" fill="#fff"/><path d="m35.9441426 42.8954824c-.2077852 0-.4147735-.0875566-.5657813-.2306953-.1439355-.1517051-.2310937-.3509238-.2310937-.5661797 0-.2069883.0871582-.4139765.2310937-.5657812.2949434-.2945449.8365196-.2945449 1.1314629 0 .1432383.1517051.2310938.3587929.2310938.5657812 0 .2151563-.0879551.414375-.2310938.5661797-.1517051.1431387-.3586933.2306953-.5656816.2306953z" fill="#fff"/><path d="m32.3496387 25.2287637c-.2069883 0-.4139766-.0875567-.5657813-.2310938-.1432383-.1514062-.2310937-.3583945-.2310937-.5657812 0-.2151563.087955-.414375.2310937-.5657813.2949434-.2949433.8373164-.2949433 1.1236934 0 .1517051.1435371.2388633.350625.2388633.5657813 0 .2073867-.0871582.414375-.2388633.5657812-.1431387.1435371-.350127.2310938-.5579121.2310938z" fill="#fff"/><path d="m35.880293 28.7271445c-.2069883 0-.4147735-.0797871-.5657813-.2310937-.1439355-.1435371-.2310937-.350625-.2310937-.5657813 0-.2069883.0871582-.414375.2310937-.5657812.3027129-.2949434.82875-.2949434 1.1314629 0 .1510078.1514062.2310938.3587929.2310938.5657812 0 .2151563-.0801856.4221446-.2310938.5657813-.1517051.1514062-.3509238.2310937-.5656816.2310937z" fill="#fff"/><path d="m18.1816992 25.2848437c-.2155547 0-.4147734-.0797871-.5657812-.2310937-.1439356-.1435371-.2310938-.350625-.2310938-.5580117 0-.2151563.0871582-.4221446.2310938-.5657813.2949433-.2949433.8365195-.2949433 1.1314629 0 .1432382.1435371.2310937.350625.2310937.5657813 0 .2073867-.0879551.414375-.2310937.5580117-.1516055.1513066-.3586934.2310937-.5656817.2310937z" fill="#fff"/><path d="m37.8242695 38.2896445c-.2069882 0-.4139765-.0797871-.5657812-.2310937-.1432383-.1514063-.2310938-.350625-.2310938-.5657813 0-.2069883.0879551-.414375.2310938-.5657812.3027129-.2949434.82875-.2949434 1.1314629 0 .151705.1514062.2310937.3587929.2310937.5657812 0 .2151563-.0793887.414375-.2310937.5657813-.1509082.1514062-.350127.2310937-.5656817.2310937z" fill="#fff"/><path d="m27.7441992 23.3404688c-.2155547 0-.4147734-.0797872-.5657812-.2310938-.1439356-.1514062-.2310938-.350625-.2310938-.5657813 0-.2073867.0871582-.414375.2310938-.5580117.2949433-.3027129.82875-.3027129 1.1314629 0 .1432382.1435371.2310937.350625.2310937.5580117 0 .2151563-.0879551.4221446-.2310937.5657813-.1516055.1513066-.3586934.2310938-.5656817.2310938z" fill="#fff"/><g fill="#ffcd00"><path d="m29.4787969 42.9522598c.3400664 0 .6778418-.1065821.9665097-.3163594.511295-.3712442.7618125-.9883242.6552305-1.6104844l-.0360586-.2099765-1.9516465-1.9516465.4172637 2.4308672.7852207-.1346719-.8630156.1906523-3.7704141-1.9820273c-.2318906-.1222207-.5089043-.1222207-.7407949 0l-3.7704141 1.9820273.3704473.7054336-.4474453-.7615137.7198769-4.1980371c.0443262-.2583867-.0412382-.5221523-.2288027-.7054336l-3.0505371-2.9731406-.556418.5707617.586002-.6615058 4.2146719-.6123985c.0507011-.0073711.098414-.0232089.1458281-.0397441l-1.3900488-1.3901484-3.2000508.4648769c-.6248496.091043-1.1338535.520957-1.3291875 1.1214024-.195334.6004453-.0357598 1.2471093.4163672 1.6882793l2.7509121 2.6804882-.6490547 3.7851563c-.106582.6221601.1439355 1.2392402.6552305 1.6104844.5089042.3700488 1.1742949.4186582 1.7330039.125707l3.3999668-1.7870918 3.3999668 1.7870918c.2429472.1278984.505916.1909512.7673906.1909512z"/><path d="m12.5639297 35.859375c-.2077852 0-.4147735-.0879551-.5665781-.2310938-.1432383-.1514062-.2302969-.3587929-.2302969-.5657812 0-.2073867.0871582-.414375.2302969-.5657813.2949433-.2949433.82875-.2949433 1.1236933 0 .1517051.1514063.2396602.3583946.2396602.5657813 0 .2069883-.0879551.414375-.2396602.5657812-.1431387.1431387-.3501269.2310938-.5571152.2310938z"/><path d="m25.3139297 48.609375c-.2077852 0-.4147734-.0879551-.5664785-.2310937-.1510078-.1514063-.2303965-.358793-.2303965-.5657813 0-.2073867.0793887-.414375.2303965-.5657812.3035097-.2949434.82875-.2949434 1.1236933 0 .1517051.1514062.2396602.3583945.2396602.5657812 0 .2069883-.0879551.414375-.2396602.5657813-.1432382.1431386-.3502265.2310937-.5572148.2310937z"/><path d="m16.2930059 44.8720313c-.2069883 0-.4147735-.0797872-.5580118-.2310938-.151705-.1517051-.2388632-.358793-.2388632-.5657812 0-.2073868.0871582-.414375.2388632-.5580118.2949434-.2949433.82875-.3027129 1.1236934 0 .1510078.1435371.2310937.350625.2310937.5580118 0 .2069882-.0801855.4139765-.2310937.5657812-.1430391.1514063-.3508242.2310938-.5656816.2310938z"/><path d="m13.535918 40.7359512c-.2155547 0-.422543-.0793887-.5657813-.2310938-.1517051-.1514062-.2310937-.3583945-.2310937-.5657812 0-.2069883.0793886-.414375.2310937-.5576133.2949434-.3027129.82875-.3027129 1.1236934 0 .1510078.1432383.2388633.350625.2388633.5576133 0 .2073867-.0879551.414375-.2388633.5657812-.1439356.1517051-.3509238.2310938-.5579121.2310938z"/><path d="m30.1901074 47.6369883c-.2069883 0-.4139765-.0797871-.5657812-.2310938-.1432383-.1432383-.2310938-.350625-.2310938-.5657812 0-.2069883.0879551-.414375.2310938-.5657813.3027129-.2949433.82875-.2949433 1.1314629 0 .1439355.1514063.2310937.358793.2310937.5657813 0 .2073867-.0871582.414375-.2310937.5657812-.1509082.1513067-.3578965.2310938-.5656817.2310938z"/><path d="m13.535918 30.9824004c-.2155547 0-.422543-.0875567-.5657813-.2392617-.1517051-.1432383-.2310937-.350625-.2310937-.5576133 0-.2151563.0793886-.422543.2310937-.5657813.2949434-.2949433.82875-.2949433 1.1236934 0 .1510078.1514063.2388633.350625.2388633.5657813 0 .2069883-.0879551.414375-.2388633.5576133-.1439356.151705-.3509238.2392617-.5579121.2392617z"/><path d="m20.4283887 47.6369883c-.2069883 0-.4139766-.0797871-.5572149-.2310938-.1517051-.1514062-.2396601-.350625-.2396601-.5657812 0-.2069883.087955-.414375.2396601-.5580117.2941465-.3027129.82875-.3027129 1.1228965 0 .1517051.1435371.2310938.3509238.2310938.5580117 0 .2151562-.0793887.414375-.2310938.5657812-.1431387.1513067-.3501269.2310938-.5656816.2310938z"/><path d="m12.8184316 38.4013066c-.2069882 0-.4139765-.087955-.5657812-.2310937-.1432383-.1514063-.2310938-.358793-.2310938-.5657813 0-.2073867.0879551-.414375.2310938-.5657812.3027129-.2949434.82875-.2949434 1.1314629 0 .1439355.1514062.2310937.3583945.2310937.5657812 0 .2069883-.0871582.414375-.2310937.5657813-.1509082.1432383-.3586934.2310937-.5656817.2310937z"/><path d="m27.8554629 48.3540762c-.2147578 0-.422543-.0875567-.5657813-.2310938-.151705-.1514062-.2310937-.3583945-.2310937-.5657812 0-.2069883.0793887-.414375.2310937-.5657813.2949434-.2949433.82875-.2949433 1.1236934 0 .1510078.1514063.2388633.358793.2388633.5657813 0 .2073867-.0879551.414375-.2388633.5657812-.1430391.1435371-.3508242.2310938-.5579121.2310938z"/><path d="m14.6829199 28.8228691c-.2147578 0-.4217461-.0875566-.5657812-.2310937-.1510078-.1514063-.2310938-.358793-.2310938-.5657813 0-.2151562.0801856-.414375.2310938-.5657812.2949433-.2949434.82875-.2949434 1.1236933 0 .1517051.1514062.2388633.3583945.2388633.5657812 0 .2069883-.0871582.414375-.2388633.5657813-.1431386.1435371-.3501269.2310937-.5579121.2310937z"/><path d="m18.2774238 46.4895879c-.2155547 0-.4225429-.0875567-.5657812-.2310938-.1517051-.1514062-.2310938-.350625-.2310938-.5657812 0-.2073867.0793887-.414375.2310938-.5580117.2941465-.3027129.82875-.3027129 1.1228965 0 .151705.1435371.2396601.350625.2396601.5580117 0 .2151562-.0879551.414375-.2396601.5657812-.1430391.1435371-.350127.2310938-.5571153.2310938z"/><path d="m14.739 42.991207c-.2069883 0-.4139766-.0875566-.5657813-.2388633-.1432382-.1435371-.2310937-.350625-.2310937-.5580117 0-.2151562.0879551-.414375.2310937-.5657812.3027129-.2949434.8365196-.2949434 1.1314629 0 .1517051.1514062.2310938.350625.2310938.5657812 0 .2073867-.0793887.414375-.2310938.5580117-.1509082.1513067-.3501269.2388633-.5656816.2388633z"/><path d="m32.4453633 46.4257383c-.2147578 0-.4217461-.0797871-.5657813-.2310938-.1510078-.1432383-.2310937-.350625-.2310937-.5657812 0-.2069883.0801855-.414375.2310937-.5576133.2871739-.2949434.82875-.3031113 1.1236934 0 .1517051.1432383.2388633.350625.2388633.5576133 0 .2151562-.0871582.4225429-.2388633.5657812-.1431387.1513067-.350127.2310938-.5579121.2310938z"/><path d="m12.7942266 33.428707c-.2069883 0-.4139766-.0875566-.5657813-.2388632-.1432383-.1435372-.2310937-.350625-.2310937-.5580118 0-.2151562.087955-.414375.2310937-.5657812.2949434-.2949434.8373164-.2949434 1.1322598 0 .1510078.1514062.2303965.350625.2303965.5657812 0 .2073868-.0793887.414375-.2303965.5580118-.1517051.1513066-.3586934.2388632-.5664785.2388632z"/><path d="m22.8750937 48.3782812c-.2069882 0-.4139765-.087955-.5580117-.2392617-.1510078-.1432382-.2310937-.350625-.2310937-.5576132 0-.2151563.0801855-.422543.2310937-.5657813.2949434-.2949434.82875-.2949434 1.1236934 0 .1517051.1432383.2310937.350625.2310937.5657813 0 .2069882-.0793886.414375-.2310937.5576132-.1431387.1513067-.350127.2392617-.5656817.2392617z"/><path d="m15.7342969 25.4851582c-.1511074.1432383-.238166.3499277-.238166.5645859 0 .2069883.0871582.414375.2388632.5576133.1432383.1514063.3509239.2392617.5580118.2392617.2141601 0 .4127812-.0876562.5643867-.2383652z"/><path d="m34.3261875 44.8720313c.2064902 0 .4128809-.0795879.5645859-.2303965l-1.1267812-1.1267813c-.0009961.0009961-.0024902.0012949-.0035859.002291-.1432383.1435371-.2310938.350625-.2310938.5580118 0 .2147578.0879551.4221445.2310938.5657812.1510078.1514063.3587929.2310938.5657812.2310938z"/></g></g></g></svg>